<svg width="32" height="47" viewBox="0 0 32 47" fill="none" xmlns="http://www.w3.org/2000/svg">
<rect y="7" width="32" height="32" rx="4" fill="black"/>
<path d="M17.834 34.527C10.549 34.527 5.992 29.939 5.992 23.15C5.992 16.206 10.828 11.773 17.71 11.773C21.027 11.773 23.755 12.92 26.049 15.183L22.515 18.81C21.151 17.539 19.663 16.95 17.834 16.95C14.269 16.95 11.882 19.43 11.882 23.15C11.882 26.87 14.269 29.35 17.834 29.35C19.849 29.35 21.709 28.606 23.104 27.242L26.421 31.086C24.003 33.411 21.151 34.527 17.834 34.527Z" fill="white"/>
</svg>
